<?xml version="1.0" encoding="utf-8"?>
<!-- Generator: Adobe Illustrator 25.4.1, SVG Export Plug-In . SVG Version: 6.00 Build 0)  -->
<svg version="1.1" id="Layer_2" xmlns="http://www.w3.org/2000/svg" xmlns:xlink="http://www.w3.org/1999/xlink" x="0px" y="0px"
	 viewBox="0 0 5100 3000" style="enable-background:new 0 0 5100 3000;" xml:space="preserve">
<style type="text/css">
	.st0{fill:url(#SVGID_1_);}
	.st1{fill:url(#SVGID_00000095340652432855207460000015412176298575792515_);}
	.st2{fill:url(#SVGID_00000041278208928140381880000014865184514634381230_);}
	.st3{fill:url(#SVGID_00000160149877529085812330000018114576526444224431_);}
	.st4{fill:url(#SVGID_00000181080645652232151580000001842216641924140710_);}
	.st5{fill:url(#SVGID_00000107571288275674903670000003530312092172332734_);}
	.st6{fill:url(#SVGID_00000029752063385824942770000010425989411151963307_);}
	.st7{fill:url(#SVGID_00000164495853711978878630000011978446785766311078_);}
	.st8{fill:url(#SVGID_00000118379532823158994600000015957306144151931294_);}
	.st9{fill:url(#SVGID_00000085933600905550153400000008539213690439480725_);}
	.st10{fill:url(#SVGID_00000043421057497083965060000009802726983662385847_);}
	.st11{fill:url(#SVGID_00000114762653394041125540000014077636924152855731_);}
	.st12{fill:url(#SVGID_00000163054340422465950270000003942369282304814517_);}
	.st13{fill:url(#SVGID_00000048478863860034350430000005082075785385925249_);}
	.st14{fill:url(#SVGID_00000025434027209716232110000004509879334234714019_);}
	.st15{fill:url(#SVGID_00000000183886670785171240000016879475354273901729_);}
	.st16{fill:url(#SVGID_00000103232766158516466340000011754159207946149555_);}
	.st17{fill:url(#SVGID_00000057133177267038354940000002594296221590985119_);}
	.st18{fill:url(#SVGID_00000115495606762397680940000011528039296097535140_);}
	.st19{fill:url(#SVGID_00000121276858106473579640000012659966550793633175_);}
	.st20{fill:url(#SVGID_00000140003760020721273850000018005454988798074529_);}
	.st21{fill:url(#SVGID_00000097493208133414986780000018395400005545286042_);}
	.st22{fill:url(#SVGID_00000166646279897990629880000006637340348016630926_);}
	.st23{fill:url(#SVGID_00000142871833893061452900000012813024743179239331_);}
	.st24{fill:url(#SVGID_00000003788164744485364040000016878175875403742109_);}
	.st25{fill:url(#SVGID_00000171701043987972882930000004633240369058257082_);}
	.st26{fill:url(#SVGID_00000112625320326018143850000010090857822766415532_);}
</style>
<radialGradient id="SVGID_1_" cx="-822.8952" cy="227.112" r="7276.585" gradientUnits="userSpaceOnUse">
	<stop  offset="0" style="stop-color:#FFFFFF"/>
	<stop  offset="0.1229" style="stop-color:#FFE6E8"/>
	<stop  offset="0.2447" style="stop-color:#FFD3D8"/>
	<stop  offset="0.3317" style="stop-color:#FFCDD2"/>
	<stop  offset="0.4113" style="stop-color:#F7C6D1"/>
	<stop  offset="0.536" style="stop-color:#E0B1CE"/>
	<stop  offset="0.6903" style="stop-color:#BC90CA"/>
	<stop  offset="0.8666" style="stop-color:#8A62C3"/>
	<stop  offset="0.9044" style="stop-color:#7E57C2"/>
</radialGradient>
<rect class="st0" width="5100" height="3000"/>
<linearGradient id="SVGID_00000020401303421830214750000001043178730176853145_" gradientUnits="userSpaceOnUse" x1="-750.4293" y1="2603.5" x2="6240.5996" y2="2603.5">
	<stop  offset="1.446760e-03" style="stop-color:#EF9A9A"/>
	<stop  offset="0.1698" style="stop-color:#D188A4"/>
	<stop  offset="0.4114" style="stop-color:#AD73B1"/>
	<stop  offset="0.6377" style="stop-color:#9364BA"/>
	<stop  offset="0.8405" style="stop-color:#845AC0"/>
	<stop  offset="1" style="stop-color:#7E57C2"/>
</linearGradient>
<rect y="2207" style="fill:url(#SVGID_00000020401303421830214750000001043178730176853145_);" width="5100" height="793"/>
<radialGradient id="SVGID_00000057138239627361874440000002885541952731328136_" cx="-1013.9596" cy="697.1266" r="4371.062" gradientUnits="userSpaceOnUse">
	<stop  offset="0" style="stop-color:#FFFFFF"/>
	<stop  offset="0.3705" style="stop-color:#FFE6E8"/>
	<stop  offset="0.7377" style="stop-color:#FFD3D8"/>
	<stop  offset="1" style="stop-color:#FFCDD2"/>
</radialGradient>
<path style="fill:url(#SVGID_00000057138239627361874440000002885541952731328136_);" d="M1576,1122
	c-37.13-36.05-89.14-62.46-150.81-72.62c-52.52-8.65-104.98-4.35-152.24,10.19c-3.55-79.95-51.39-144.2-125.16-156.36
	c-47.02-7.75-95.8,7.13-136.95,37.54c-1.35-8.64-9.21-15.95-20.34-17.79c-3.52-0.58-7.03-0.56-10.38-0.02
	c15.67-82.55-8.45-150.52-66.31-166.35c-75.8-20.74-180.79,55.92-234.49,171.2c-2.47,5.31-4.79,10.62-6.97,15.91
	c-81.81-48.7-180.09-61.69-251.34-26.31c-64.81,32.18-91.1,96.36-76.82,165.74c-5.67-2.61-11.93-4.56-18.71-5.67
	c-34.93-5.75-69.72,12.6-77.69,41.01c-0.33,1.19-0.61,2.37-0.85,3.54H1576z"/>
<radialGradient id="SVGID_00000041285034193900898430000010285652772680930719_" cx="2517.2673" cy="-32.1185" r="3180.2817" gradientUnits="userSpaceOnUse">
	<stop  offset="0" style="stop-color:#FFCDD2"/>
	<stop  offset="0.1389" style="stop-color:#F7C6D1"/>
	<stop  offset="0.3567" style="stop-color:#E0B1CE"/>
	<stop  offset="0.6261" style="stop-color:#BC90CA"/>
	<stop  offset="0.934" style="stop-color:#8A62C3"/>
	<stop  offset="1" style="stop-color:#7E57C2"/>
</radialGradient>
<path style="fill:url(#SVGID_00000041285034193900898430000010285652772680930719_);" d="M3256.04,644
	c8.93-23.49,39.49-43.23,81.14-54.11c-10.58-75.96,16.39-143.24,68.74-160.02c42.26-13.53,90.15,9.3,125.73,54.33
	c-0.08-14.03,4.54-25.15,13.57-29.29c14.33-6.56,34.78,6.76,48.06,30.27c82.18-161.9,235.44-249.63,347.38-196.63
	c68.52,32.44,106.05,110.3,108.08,203.91c9.62-9.6,20.45-14.01,29.58-10.7c8.66,3.14,14.04,12.62,15.61,25.17
	c50.58-62.86,122.56-91.3,178.87-64.64c47.88,22.68,72.11,79.36,68.11,144.36c18.48-3.73,38.72-5.79,59.94-5.79
	c77.21,0,141.47,27.2,155.13,63.12H3256.04z"/>
<radialGradient id="SVGID_00000001634761491107729190000008749410034581436583_" cx="371.257" cy="1490.8547" r="2090.3833" gradientUnits="userSpaceOnUse">
	<stop  offset="0" style="stop-color:#FFFFFF"/>
	<stop  offset="0.3705" style="stop-color:#FFE6E8"/>
	<stop  offset="0.7377" style="stop-color:#FFD3D8"/>
	<stop  offset="1" style="stop-color:#FFCDD2"/>
</radialGradient>
<path style="fill:url(#SVGID_00000001634761491107729190000008749410034581436583_);" d="M2221.54,1580
	c-22.07-27.97-52.99-48.45-89.65-56.34c-15.78-3.39-31.56-4.21-46.92-2.74c-4.84-57.02-32.46-101.77-73.77-110.66
	c-20.69-4.45-41.94,0.72-61.51,13.26c-4.92-11.04-14.52-19.54-26.78-22.18c-9.64-2.07-19.24-0.17-27.3,4.63
	c-9.78-39.89-34.86-72.1-71.21-85.07c-62.13-22.18-134.38,19.98-164.59,94.67c-10.63-7.36-20.93-9.7-26.5-4.99
	c-5,4.23-5.04,13.16-1.03,23.43c-46.35-31.37-99.54-38.23-138.87-12.75c-38.52,24.96-54.15,74.75-45.67,128.58
	c-3.37-2.02-7.09-3.54-11.12-4.4c-20.77-4.46-41.44,9.78-46.18,31.82c-0.19,0.92-0.36,1.84-0.5,2.75H2221.54z M1896.72,1479.28
	c0.67,0.34,1.36,0.65,2.07,0.95c-1.33,2.37-2.63,4.79-3.89,7.26C1895.57,1484.75,1896.18,1482.01,1896.72,1479.28z"/>
<linearGradient id="SVGID_00000177463248303759069470000014878935946260755600_" gradientUnits="userSpaceOnUse" x1="535.4241" y1="823.6149" x2="1417.9446" y2="2882.8284">
	<stop  offset="0.1542" style="stop-color:#FFCDD2"/>
	<stop  offset="0.2033" style="stop-color:#FDC8CD"/>
	<stop  offset="0.4925" style="stop-color:#F6AFB1"/>
	<stop  offset="0.7468" style="stop-color:#F19FA0"/>
	<stop  offset="0.9373" style="stop-color:#EF9A9A"/>
</linearGradient>
<path style="fill:url(#SVGID_00000177463248303759069470000014878935946260755600_);" d="M2256.18,2206.5l-234.68-125l-297-47
	l-131.37-60.63c-16.23-7.49-33.89-11.37-51.76-11.37H1307.5l-565.17-231.13c-39.97-16.35-83.27-22.91-126.29-19.15L0,1766v440.5
	H2256.18z"/>
<linearGradient id="SVGID_00000114753456128679213750000005622140422220421537_" gradientUnits="userSpaceOnUse" x1="1493.5461" y1="1125.9264" x2="4902.1318" y2="1970.2552">
	<stop  offset="0" style="stop-color:#F0899F"/>
	<stop  offset="0.1576" style="stop-color:#EA87A1"/>
	<stop  offset="0.3613" style="stop-color:#DA7FA6"/>
	<stop  offset="0.5902" style="stop-color:#C074AE"/>
	<stop  offset="0.8359" style="stop-color:#9B64B9"/>
	<stop  offset="1" style="stop-color:#7E57C2"/>
</linearGradient>
<path style="fill:url(#SVGID_00000114753456128679213750000005622140422220421537_);" d="M1682.5,2206.5L1832,2090l132-41
	l175.76-128.26c42.07-30.7,92.8-47.24,144.88-47.24h727.9c3.31,0,6.61,0.19,9.89,0.56l323.31,36.8c26.87,3.06,54.08,0.4,79.85-7.8
	l323.77-103.05c52.62-16.75,100.31-46.16,138.9-85.66l364.23-372.85l532-207l60.95-57.26c24.96-23.45,55.44-40.23,88.6-48.79
	L5100,985.5v1221H1682.5z"/>
<g>
	<g>
		
			<linearGradient id="SVGID_00000086677118948946193000000018361583108287522201_" gradientUnits="userSpaceOnUse" x1="4080.2808" y1="2718" x2="4205.4321" y2="2718">
			<stop  offset="0" style="stop-color:#5E35B1"/>
			<stop  offset="0.3055" style="stop-color:#6E46BA"/>
			<stop  offset="0.6623" style="stop-color:#7A53C0"/>
			<stop  offset="1" style="stop-color:#7E57C2"/>
		</linearGradient>
		<ellipse style="fill:url(#SVGID_00000086677118948946193000000018361583108287522201_);" cx="4169" cy="2718" rx="65" ry="6"/>
		
			<radialGradient id="SVGID_00000125601402258284102250000015508314371648683187_" cx="2780.48" cy="2255.158" r="1722.7357" gradientUnits="userSpaceOnUse">
			<stop  offset="0.1124" style="stop-color:#F06292"/>
			<stop  offset="0.2141" style="stop-color:#BD5389"/>
			<stop  offset="0.3313" style="stop-color:#894380"/>
			<stop  offset="0.4467" style="stop-color:#5D3678"/>
			<stop  offset="0.5576" style="stop-color:#3C2C73"/>
			<stop  offset="0.6627" style="stop-color:#24256E"/>
			<stop  offset="0.7598" style="stop-color:#15206C"/>
			<stop  offset="0.8412" style="stop-color:#101F6B"/>
		</radialGradient>
		<path style="fill:url(#SVGID_00000125601402258284102250000015508314371648683187_);" d="M4128.26,2684.31
			c-4.41,15.84-10.6,28.77-15.7,33.69h-8.21c-6-5.71-13.55-21.95-18.94-41.89c-7.03-25.96-7.75-48.35-1.6-50.02
			c6.15-1.67,16.83,18.03,23.86,43.99c0.62,2.29,1.19,4.54,1.71,6.76c5.9-20.19,14.62-35.11,19.82-33.66
			C4134.57,2644.68,4134.16,2663.09,4128.26,2684.31z"/>
	</g>
	<g>
		
			<linearGradient id="SVGID_00000020379156937527085630000011847045249743961272_" gradientUnits="userSpaceOnUse" x1="3934.2808" y1="2763" x2="4059.4321" y2="2763">
			<stop  offset="0" style="stop-color:#5E35B1"/>
			<stop  offset="0.3055" style="stop-color:#6E46BA"/>
			<stop  offset="0.6623" style="stop-color:#7A53C0"/>
			<stop  offset="1" style="stop-color:#7E57C2"/>
		</linearGradient>
		<ellipse style="fill:url(#SVGID_00000020379156937527085630000011847045249743961272_);" cx="4023" cy="2763" rx="65" ry="6"/>
		
			<radialGradient id="SVGID_00000154407062975613079810000009217122896801238964_" cx="2635.48" cy="2301.158" r="1722.7357" gradientUnits="userSpaceOnUse">
			<stop  offset="0.1124" style="stop-color:#F06292"/>
			<stop  offset="0.2141" style="stop-color:#BD5389"/>
			<stop  offset="0.3313" style="stop-color:#894380"/>
			<stop  offset="0.4467" style="stop-color:#5D3678"/>
			<stop  offset="0.5576" style="stop-color:#3C2C73"/>
			<stop  offset="0.6627" style="stop-color:#24256E"/>
			<stop  offset="0.7598" style="stop-color:#15206C"/>
			<stop  offset="0.8412" style="stop-color:#101F6B"/>
		</radialGradient>
		<path style="fill:url(#SVGID_00000154407062975613079810000009217122896801238964_);" d="M3983.26,2730.31
			c-4.41,15.84-10.6,28.77-15.7,33.69h-8.21c-6-5.71-13.55-21.95-18.94-41.89c-7.03-25.96-7.75-48.35-1.6-50.02
			c6.15-1.67,16.83,18.03,23.86,43.99c0.62,2.29,1.19,4.54,1.71,6.76c5.9-20.19,14.62-35.11,19.82-33.66
			C3989.57,2690.68,3989.16,2709.09,3983.26,2730.31z"/>
	</g>
	<g>
		
			<linearGradient id="SVGID_00000134219784659794891330000014779946159427405200_" gradientUnits="userSpaceOnUse" x1="2176.8162" y1="2546" x2="2321.3215" y2="2546">
			<stop  offset="0" style="stop-color:#673EB0"/>
			<stop  offset="0.0808" style="stop-color:#7547B2"/>
			<stop  offset="0.269" style="stop-color:#8F57B7"/>
			<stop  offset="0.4618" style="stop-color:#A263BA"/>
			<stop  offset="0.6603" style="stop-color:#AD6BBC"/>
			<stop  offset="0.8728" style="stop-color:#B16DBD"/>
		</linearGradient>
		<ellipse style="fill:url(#SVGID_00000134219784659794891330000014779946159427405200_);" cx="2235" cy="2546" rx="65" ry="6"/>
		
			<radialGradient id="SVGID_00000039131013019767450430000010318299210797853344_" cx="1625.4844" cy="2303.1582" r="1722.731" gradientUnits="userSpaceOnUse">
			<stop  offset="0.1124" style="stop-color:#F06292"/>
			<stop  offset="0.2141" style="stop-color:#BD5389"/>
			<stop  offset="0.3313" style="stop-color:#894380"/>
			<stop  offset="0.4467" style="stop-color:#5D3678"/>
			<stop  offset="0.5576" style="stop-color:#3C2C73"/>
			<stop  offset="0.6627" style="stop-color:#24256E"/>
			<stop  offset="0.7598" style="stop-color:#15206C"/>
			<stop  offset="0.8412" style="stop-color:#101F6B"/>
		</radialGradient>
		<path style="fill:url(#SVGID_00000039131013019767450430000010318299210797853344_);" d="M2192.68,2516.87
			c-3.81,13.7-9.17,24.88-13.58,29.13h-7.1c-5.19-4.94-11.72-18.98-16.38-36.22c-6.08-22.45-6.7-41.81-1.38-43.25
			c5.32-1.44,14.55,15.59,20.63,38.04c0.54,1.98,1.03,3.93,1.48,5.85c5.1-17.46,12.64-30.36,17.14-29.11
			C2198.14,2482.6,2197.78,2498.52,2192.68,2516.87z"/>
	</g>
</g>
<g>
	
		<radialGradient id="SVGID_00000098901730466825095330000018233185041946521778_" cx="3573.4465" cy="1381.1854" r="1597.6248" gradientUnits="userSpaceOnUse">
		<stop  offset="0" style="stop-color:#AB47BC"/>
		<stop  offset="0.1765" style="stop-color:#A746BB"/>
		<stop  offset="0.3384" style="stop-color:#9C44BA"/>
		<stop  offset="0.4945" style="stop-color:#8A3FB7"/>
		<stop  offset="0.6462" style="stop-color:#7039B4"/>
		<stop  offset="0.7293" style="stop-color:#5E35B1"/>
	</radialGradient>
	<path style="fill:url(#SVGID_00000098901730466825095330000018233185041946521778_);" d="M5100,2025.08v181.42H3600.15
		c0-46.4,38.02-77.78,84.93-77.78c23.25,0,44.31,7.72,59.65,21.15c21.95-44.3,69.34-72.95,124.27-72.95
		c57.69,0,107.07,31.6,127.39,79.74c0.58-0.01,1.16-0.03,1.74-0.03c10.04,0,19.47,1.95,27.65,5.6
		c1.79-24.83,16.39-47.66,41.27-62.02c27.61-15.94,60.56-14.2,85.78,1.7c1.72-7.99,6.43-15.06,13.72-19.27
		c1.13-0.64,2.28-1.19,3.45-1.68c-21.71-53.23-1.35-115.65,49.82-145.2c30.61-17.67,65.9-19.92,96.86-9.15
		c34.78-112.43,139.57-194.11,263.43-194.11c148.74,0,269.97,117.78,275.51,265.16c27.34-5.07,55.14,2.14,74.94,19.71
		C4979.59,1983.91,5047.64,1985.41,5100,2025.08z"/>
	
		<radialGradient id="SVGID_00000103250943584372362690000012524192729936529315_" cx="244.9749" cy="1759.2913" r="1012.3085" gradientUnits="userSpaceOnUse">
		<stop  offset="0" style="stop-color:#F0899F"/>
		<stop  offset="0.1576" style="stop-color:#EA87A1"/>
		<stop  offset="0.3613" style="stop-color:#DA7FA6"/>
		<stop  offset="0.5902" style="stop-color:#C074AE"/>
		<stop  offset="0.8359" style="stop-color:#9B64B9"/>
		<stop  offset="1" style="stop-color:#7E57C2"/>
	</radialGradient>
	<path style="fill:url(#SVGID_00000103250943584372362690000012524192729936529315_);" d="M855.71,2132.47
		c3.62-14.31,4.18-29.85,1.05-45.81c-11.37-57.94-66.86-99.32-123.94-92.4c-50.51,6.13-85.32,48.01-84.79,97.72
		c-5.48-1.91-11.44-2.98-17.69-2.98c-15.53,0-29.31,6.52-38.11,16.61c-15.3-46.47-57.31-79.84-106.72-79.84
		c-62.35,0-112.91,53.12-112.91,118.67c0,0.19,0.01,0.37,0.01,0.56c-3.16-0.49-6.39-0.75-9.69-0.75c-8.55,0-16.69,1.71-24.1,4.81
		c-4.66-3.35-10.36-5.61-16.63-6.61c29.6-35.2,27.38-85.9-5.05-113.42c-24.28-20.61-58.63-22.4-86.91-7.34
		c3.4-14.36,0.75-27.07-7.9-32.07c-6.09-3.52-14.02-2.54-21.92,1.87c-2.76-71.34-61.45-128.32-133.46-128.32
		c-24.4,0-47.27,6.54-66.96,17.98v324.37h911.31c0.33-2.64,0.5,2.73,0.5,0C911.81,2172.48,887.44,2137.1,855.71,2132.47z"/>
	
		<linearGradient id="SVGID_00000098902884641151002720000001479668379635691946_" gradientUnits="userSpaceOnUse" x1="2155.7129" y1="1829.6421" x2="2390.2827" y2="2220.5911">
		<stop  offset="0" style="stop-color:#F0899F"/>
		<stop  offset="0.1576" style="stop-color:#EA87A1"/>
		<stop  offset="0.3613" style="stop-color:#DA7FA6"/>
		<stop  offset="0.5902" style="stop-color:#C074AE"/>
		<stop  offset="0.8359" style="stop-color:#9B64B9"/>
		<stop  offset="1" style="stop-color:#7E57C2"/>
	</linearGradient>
	<path style="fill:url(#SVGID_00000098902884641151002720000001479668379635691946_);" d="M2560.6,2200.52
		c0,1.96-0.12,3.89-0.36,5.78h-374.71c-7.32-12.79-11.53-27.77-11.53-43.78c0-46.99,36.25-85.08,80.95-85.08
		c35.43,0,65.55,23.93,76.52,57.25c6.31-7.24,16.19-11.91,27.33-11.91c4.48,0,8.75,0.77,12.68,2.14
		c-0.38-35.64,24.58-65.67,60.79-70.07c40.92-4.96,80.71,24.71,88.86,66.25c2.25,11.44,1.84,22.58-0.75,32.84
		C2543.13,2157.25,2560.6,2176.84,2560.6,2200.52z"/>
</g>
<g>
	
		<linearGradient id="SVGID_00000056389675009873408880000015867712478311472020_" gradientUnits="userSpaceOnUse" x1="-2583.8486" y1="2273.5" x2="5915.7095" y2="2273.5">
		<stop  offset="0" style="stop-color:#FFFFFF"/>
		<stop  offset="0.1924" style="stop-color:#FFE6E8"/>
		<stop  offset="0.3832" style="stop-color:#FFD3D8"/>
		<stop  offset="0.5194" style="stop-color:#FFCDD2"/>
		<stop  offset="0.5844" style="stop-color:#FAC5D1"/>
		<stop  offset="0.6863" style="stop-color:#ECAECD"/>
		<stop  offset="0.8123" style="stop-color:#D58AC7"/>
		<stop  offset="0.9563" style="stop-color:#B558BF"/>
		<stop  offset="1" style="stop-color:#AB47BC"/>
	</linearGradient>
	<path style="fill:url(#SVGID_00000056389675009873408880000015867712478311472020_);" d="M5100,2253.67l-4296.91,0.51
		c-2,0-2.41,2.83-0.49,3.39L828,2265l508.17,29.89c2.7,0.16,2.94,4.05,0.28,4.54L1117.29,2340H0v-133h5100V2253.67z"/>
	
		<linearGradient id="SVGID_00000080903468259937479850000017238842335381671083_" gradientUnits="userSpaceOnUse" x1="140.496" y1="2305.3618" x2="3871.7566" y2="2279.147">
		<stop  offset="0" style="stop-color:#FFCDD2"/>
		<stop  offset="0.1352" style="stop-color:#FAC5D1"/>
		<stop  offset="0.3472" style="stop-color:#ECAECD"/>
		<stop  offset="0.6094" style="stop-color:#D58AC7"/>
		<stop  offset="0.909" style="stop-color:#B558BF"/>
		<stop  offset="1" style="stop-color:#AB47BC"/>
	</linearGradient>
	<polygon style="fill:url(#SVGID_00000080903468259937479850000017238842335381671083_);" points="0,2308 0,2296 1301,2296 
		1238,2308 	"/>
	
		<linearGradient id="SVGID_00000135693164222247593250000008354226385564985254_" gradientUnits="userSpaceOnUse" x1="138.3507" y1="2228.5" x2="5438.3604" y2="2228.5">
		<stop  offset="0" style="stop-color:#FFCDD2"/>
		<stop  offset="0.1352" style="stop-color:#FAC5D1"/>
		<stop  offset="0.3472" style="stop-color:#ECAECD"/>
		<stop  offset="0.6094" style="stop-color:#D58AC7"/>
		<stop  offset="0.909" style="stop-color:#B558BF"/>
		<stop  offset="1" style="stop-color:#AB47BC"/>
	</linearGradient>
	<polygon style="fill:url(#SVGID_00000135693164222247593250000008354226385564985254_);" points="0,2235 0,2222 2394.95,2222 
		3837,2235 	"/>
</g>
<g>
	
		<linearGradient id="SVGID_00000040569542918069811770000005902615471226823348_" gradientUnits="userSpaceOnUse" x1="2823" y1="2407.75" x2="5100" y2="2407.75">
		<stop  offset="0" style="stop-color:#5E35B1"/>
		<stop  offset="0.3055" style="stop-color:#6E46BA"/>
		<stop  offset="0.6623" style="stop-color:#7A53C0"/>
		<stop  offset="1" style="stop-color:#7E57C2"/>
	</linearGradient>
	
		<rect x="2823" y="2389.5" style="fill:url(#SVGID_00000040569542918069811770000005902615471226823348_);" width="2277" height="36.5"/>
	
		<linearGradient id="SVGID_00000087405163329202620290000016148862493725106324_" gradientUnits="userSpaceOnUse" x1="3838" y1="2407.75" x2="5100" y2="2407.75">
		<stop  offset="0" style="stop-color:#5E35B1"/>
		<stop  offset="0.3055" style="stop-color:#6E46BA"/>
		<stop  offset="0.6623" style="stop-color:#7A53C0"/>
		<stop  offset="1" style="stop-color:#7E57C2"/>
	</linearGradient>
	<polygon style="fill:url(#SVGID_00000087405163329202620290000016148862493725106324_);" points="5100,2426 3838,2426 3838,2390.5 
		5100,2389.5 	"/>
	
		<linearGradient id="SVGID_00000085231246363912937920000014418635384181408174_" gradientUnits="userSpaceOnUse" x1="4505" y1="2407.75" x2="5100" y2="2407.75">
		<stop  offset="0" style="stop-color:#5E35B1"/>
		<stop  offset="0.3055" style="stop-color:#6E46BA"/>
		<stop  offset="0.6623" style="stop-color:#7A53C0"/>
		<stop  offset="1" style="stop-color:#7E57C2"/>
	</linearGradient>
	<polygon style="fill:url(#SVGID_00000085231246363912937920000014418635384181408174_);" points="5100,2426 4505,2426 4505,2390.5 
		5100,2389.5 	"/>
	
		<radialGradient id="SVGID_00000080189275306265940420000014692774959054591899_" cx="2599.9409" cy="564.5369" r="1434.7556" gradientUnits="userSpaceOnUse">
		<stop  offset="0.057" style="stop-color:#F06292"/>
		<stop  offset="0.1466" style="stop-color:#C4558A"/>
		<stop  offset="0.2575" style="stop-color:#954782"/>
		<stop  offset="0.372" style="stop-color:#6C3A7B"/>
		<stop  offset="0.4884" style="stop-color:#4B3175"/>
		<stop  offset="0.6073" style="stop-color:#312971"/>
		<stop  offset="0.7296" style="stop-color:#1E236E"/>
		<stop  offset="0.8575" style="stop-color:#14206C"/>
		<stop  offset="1" style="stop-color:#101F6B"/>
	</radialGradient>
	<path style="fill:url(#SVGID_00000080189275306265940420000014692774959054591899_);" d="M3143.85,865.08
		c-24.12-9.65-124.32,23.21-124.32,23.21s67.08-53.33,96.46-72.73c27.78-18.35,115.55-28.89,115.55-28.89s-68.09-68.09-142.89-57.26
		c-26.85,3.89-94.4,53.13-94.4,53.13s19.88-42.85,33.01-69.12c20.63-41.27,95.95-111.42,95.95-111.42s-122.31,12.01-154.75,40.24
		c-29.1,25.32-61.9,134.12-61.9,134.12s-20.63-109.36-136.7-114c-33.25-1.33-141.86,50.04-141.86,50.04s119.68,33.01,140.31,53.65
		c27.62,27.62,59.84,83.57,59.84,83.57s-63.27-3.21-84.6,15.48c-27.62,24.2-41.27,137.22-41.27,137.22s52.62-66.61,93.88-65
		c17.02,0.67,63.96,6.19,63.96,6.19s-73.25,68.09-55.71,164.04l102.97-100.54c0,0-39.01,994.99,98.21,1419.01h40.24
		c-150.63-315.7-123.68-1421.42-123.68-1421.42l51.46,108.11c56.74-22.7,6.19-138.25,6.19-138.25l138.25,100.07
		c0,0-4.29-51.67-11.35-66.03c-22.7-46.21-88.73-50.55-88.73-50.55s82.23-23.41,115.55-20.63c18.05,1.51,68.09,24.76,68.09,24.76
		S3178.23,878.85,3143.85,865.08z"/>
	
		<radialGradient id="SVGID_00000041291925907553056530000011793661826594234551_" cx="2155.7197" cy="826.1944" r="1351.84" gradientUnits="userSpaceOnUse">
		<stop  offset="0" style="stop-color:#F06292"/>
		<stop  offset="0.0144" style="stop-color:#E35E90"/>
		<stop  offset="0.0696" style="stop-color:#B75188"/>
		<stop  offset="0.1307" style="stop-color:#8F4581"/>
		<stop  offset="0.1962" style="stop-color:#6D3B7B"/>
		<stop  offset="0.2674" style="stop-color:#503276"/>
		<stop  offset="0.3464" style="stop-color:#382B72"/>
		<stop  offset="0.4362" style="stop-color:#26266F"/>
		<stop  offset="0.5434" style="stop-color:#19226D"/>
		<stop  offset="0.6853" style="stop-color:#12206B"/>
		<stop  offset="1" style="stop-color:#101F6B"/>
	</radialGradient>
	<path style="fill:url(#SVGID_00000041291925907553056530000011793661826594234551_);" d="M2735,1203l23,5c0,0,6-126-48-179
		c-21.87-21.47-126-28-126-28s30-37,115-39c45.51-1.07,162,22,162,22s-94.69-123.67-135.5-131.5C2676,843,2599,912,2599,912l69-83
		c0,0-44-30.94-102-1c-31,16-57,117-57,117s52.73-172.96-37.5-202.5C2415,724,2291,755,2291,755l-10,12c0,0,108.93,64.62,127,84
		c55,59,42,114,42,114s-172-132-247,61c-14.47,37.24-29,149-29,149s78.16-78.83,99-93c28.89-19.63,148-38,148-38s-140,47-154,111
		c-9.06,41.44,8.18,143.18,64,199c0.5,0.5,16.26-103.46,35-139c14.63-27.74,92-95,92-95s-42,52-32.5,103.5
		c3.03,16.41,33.5,56.5,33.5,56.5s4.89-97.23,44-125c0.21-0.15,10,719,285,1271h73c-344-498-347-1273-347-1273l64,91
		c0,0,27.37-74.34,21-97c-4.84-17.23-40-61-40-61s48,5,82,25C2680.99,1134.53,2735,1203,2735,1203z"/>
	
		<radialGradient id="SVGID_00000042719156903777141420000009272348156454469001_" cx="2771.4802" cy="833.0452" r="1030.0244" gradientUnits="userSpaceOnUse">
		<stop  offset="0" style="stop-color:#F06292"/>
		<stop  offset="0.0202" style="stop-color:#DD5C8F"/>
		<stop  offset="0.0702" style="stop-color:#B24F87"/>
		<stop  offset="0.1259" style="stop-color:#8B4480"/>
		<stop  offset="0.186" style="stop-color:#6A3A7B"/>
		<stop  offset="0.2519" style="stop-color:#4E3176"/>
		<stop  offset="0.3256" style="stop-color:#372B72"/>
		<stop  offset="0.4105" style="stop-color:#25256F"/>
		<stop  offset="0.5137" style="stop-color:#19226D"/>
		<stop  offset="0.6541" style="stop-color:#12206B"/>
		<stop  offset="1" style="stop-color:#101F6B"/>
	</radialGradient>
	<path style="fill:url(#SVGID_00000042719156903777141420000009272348156454469001_);" d="M3419.5,1120.5c0,0-59.92-86.5-100.5-86.5
		c-52,0-80,32-80,32s19-65,55-86c21.65-12.63,93-33,93-33l15-6c0,0-136-91-199,5c-26.62,40.57-35,107-35,107s-14.19-120.4-39-139
		c-28.59-21.44-130-15-130-15s51.39,70.39,70,99c13.14,20.2,35.5,64.5,35.5,64.5s-77.5-59.5-133-10
		C2946.99,1074.36,2861,1155,2861,1155s114.08-35.67,147-36c20.72-0.21,81,16,81,16s-83.63,23.52-104,51c-54.5,73.5-34,139-34,139
		s38-46,68-70c34.79-27.83,81.5-32.5,81.5-32.5s-39.89,31.93-45,54c-5.75,24.84,23.5,83.5,23.5,83.5l65.24-107.06
		C3100.78,1425.65,2999,1874,3073,2426h34c-98-544-7-925,46.69-1176.19l62.81,134.69c0,0,14.12-62.03,13-83
		c-0.77-14.47-16.5-79.5-16.5-79.5s52.55,21,72,35c27.69,19.94,80,78,80,78l17,9c0,0,34.5-133.5-29-177
		c-21.49-14.72-101.5-32.5-101.5-32.5s23-22,80.5-25.5C3354.16,1107.65,3419.5,1120.5,3419.5,1120.5z"/>
	
		<radialGradient id="SVGID_00000135692887765240839080000006752902944433636279_" cx="3197.5962" cy="556.7253" r="1603.252" gradientUnits="userSpaceOnUse">
		<stop  offset="0" style="stop-color:#F06292"/>
		<stop  offset="0.5311" style="stop-color:#773E7D"/>
		<stop  offset="1" style="stop-color:#101F6B"/>
	</radialGradient>
	<path style="fill:url(#SVGID_00000135692887765240839080000006752902944433636279_);" d="M4249.84,811.93L4401,913
		c0,0-13.26-66.19-26-90c-23-43-64.5-50.5-64.5-50.5s74-7.53,91.5-4.5c31.66,5.48,91,56,91,56l28.5,2.5c0,0-7-146-88.5-159.5
		c-37.8-6.26-132.5,27.5-132.5,27.5s89.47-81.57,125-100C4464.55,574.25,4552,583,4552,583s-150.29-112.56-211-92
		c-62,21-94.5,138.5-94.5,138.5s3.53-126.54,21-164c14.96-32.07,73.5-75.5,73.5-75.5s-151.41-3.37-198,68c-47,72,0,179,0,179
		s-100.51-59.74-182-27c-58.5,23.5-131.5,144.5-131.5,144.5l20,4c0,0,106.96-26.21,137.5-28.5c36.29-2.72,126.5,12.5,126.5,12.5
		S3998,751,3976,814c-19.13,54.78,46,219,46,219s14.35-78.28,30.5-104.5C4068.88,901.9,4145,800,4145,800s-29.85,98.35-20,117
		c28,53,105.5,85.5,105.5,85.5S4220,955,4209,886c-3.89-24.37,17-66.89,23.87-80.02c130.41,239.03,381.88,843.2,267.13,1620.02h45
		C4545,2426,4643.47,1542.29,4249.84,811.93z"/>
	
		<radialGradient id="SVGID_00000101087290781134892100000004615673675341876121_" cx="2305.1453" cy="1214.5322" r="1836.5984" gradientUnits="userSpaceOnUse">
		<stop  offset="0" style="stop-color:#F06292"/>
		<stop  offset="0.5311" style="stop-color:#773E7D"/>
		<stop  offset="1" style="stop-color:#101F6B"/>
	</radialGradient>
	<path style="fill:url(#SVGID_00000101087290781134892100000004615673675341876121_);" d="M4189,1081.5l0.5-31.5c0,0-106-79-159-78
		c-76.76,1.45-153,78-153,78s51.95-125.45,82-150c19.1-15.61,79-28,79-28l18.5-10.5c0,0-191.5-79.5-245.5,55.5
		c-10.54,26.36-16,130-16,130s-64-173-172-138c-32.65,10.58-120.5,82.5-120.5,82.5l-16,18c0,0,104.5-8.5,117.5-8.5
		c33.42,0,125,98,125,98s-105.2-4.51-125,7c-141,82-117,204-117,204s120.62-84.09,170-103c47-18,106-18,106-18
		s-62.43,75.73-65.5,101.5c-11.5,96.5,52.5,119.5,52.5,119.5s17.84-89.45,30-112c8.78-16.29,32.43-51.13,40.92-63.52
		C3821.5,1235,3750.5,1466,3835.5,2426h50c0,0-129-810-54.94-1187.31L3914,1352.5l13,8c0,0,37-82,13.5-119.5
		c-9.85-15.72-58.5-44.5-58.5-44.5s69.44,13.93,90,25c34.17,18.4,121,102,121,102l20.5,1.5c0,0-9.5-158.5-56-201
		c-36.07-32.97-145-6-145-6s37-23,92-33C4045.99,1077.46,4189,1081.5,4189,1081.5z"/>
</g>
</svg>
