<?xml version="1.0" encoding="utf-8"?>
<!-- Generator: Adobe Illustrator 25.4.1, SVG Export Plug-In . SVG Version: 6.00 Build 0)  -->
<svg version="1.1" id="Calque_1" xmlns="http://www.w3.org/2000/svg" xmlns:xlink="http://www.w3.org/1999/xlink" x="0px" y="0px"
	 viewBox="0 0 645 350" style="enable-background:new 0 0 645 350;" xml:space="preserve">
<style type="text/css">
	.st0{fill:#FFFFFF;}
	.st1{opacity:0.48;}
	.st2{fill:#665D77;}
	.st3{opacity:0.48;fill:#665D77;}
</style>
<g>
	<path class="st0" d="M222.41,114.45c-7.7-23.43-21.36-41.56-40.59-53.91c-18.83-12.07-42.56-18.19-70.52-18.19h-63.5
		c-5.58,0-10.65,4.82-11.53,10.97l-32,223.9c2.03-0.67,4.13-1.03,6.23-1.03h0.36l33.04,0.61c3.4,0.07,6.55,1.03,9.27,2.74
		l26.5-185.48h24.6c27.86,0,47.69,7.93,60.61,24.26c12.67,16,16.56,41.78,11.58,76.6c-4.97,34.8-16.39,60.7-33.94,76.98
		c-17.88,16.6-40.22,24.67-68.3,24.67h-12c0.13,4.53-1.02,9.21-3.39,13.46L37.63,347.9h31.1c42.44,0,78.13-13.63,106.08-40.5
		c27.91-26.83,45.47-64.26,52.18-111.26C231.47,164.85,229.92,137.36,222.41,114.45z"/>
	<path class="st0" d="M427.71,332.87L374.52,50.48c-0.91-4.83-4.65-8.12-9.25-8.12h-26.31c-4.27,0-8.38,2.85-10.42,7.21
		L197.27,331.95c-1.66,3.57-1.67,7.63-0.02,10.83c1.65,3.19,4.73,5.11,8.23,5.11h28.18c4.36,0,8.54-2.96,10.52-7.45l31.69-71.63
		h91.38l13.46,70.97c0.91,4.83,4.66,8.11,9.25,8.11h26.3c3.34,0,6.65-1.75,8.92-4.72C427.44,340.21,428.38,336.38,427.71,332.87z
		 M298.66,219.98l41.75-91.1l17.44,91.1H298.66z"/>
	<path class="st0" d="M644.36,48.23c-1.52-3.63-4.8-5.88-8.58-5.88h-25.92c-3.71,0-7.35,2.15-9.57,5.67l-77.63,122.45L479.65,48.8
		c-1.39-3.95-4.81-6.44-8.8-6.44h-28.18c-3.63,0-7.21,2.07-9.45,5.47c-2.24,3.4-2.83,7.65-1.56,11.24l57.65,162.91l-16.26,113.74
		c-0.45,3.17,0.29,6.27,2.05,8.57s4.39,3.61,7.28,3.61h27.8c5.59,0,10.66-4.82,11.54-10.97l16.1-112.64l105.3-164.39
		C645.4,56.32,645.88,51.86,644.36,48.23z"/>
</g>
<path class="st0" d="M17.36,350.16c-4.83,0-8.78-3.39-9.82-8.43L0.5,307.7c-0.78-3.75,0.2-7.9,2.6-11.1c2.4-3.2,5.98-5.12,9.56-5.12
	l25.99,0.48c3.88,0.07,7.18,2.31,8.83,5.98c1.65,3.67,1.36,8.14-0.77,11.96l-18.77,33.54C25.63,347.58,21.57,350.16,17.36,350.16
	C17.36,350.16,17.36,350.16,17.36,350.16z"/>
<g>
	<path class="st0" d="M80.49,35.39H46.91c-4.6,0-7.74-4.11-7.02-9.18L42.3,9.34c0.72-5.07,5.04-9.18,9.64-9.18h33.58
		c4.6,0,7.74,4.11,7.02,9.18l-2.41,16.88C89.4,31.28,85.09,35.39,80.49,35.39z"/>
</g>
<g class="st1">
	<path class="st2" d="M222.41,114.45c-7.7-23.43-21.36-41.56-40.59-53.91c-18.83-12.07-42.56-18.19-70.52-18.19h-63.5
		c-5.58,0-10.65,4.82-11.53,10.97l-32,223.9c2.03-0.67,4.13-1.03,6.23-1.03h0.36l33.04,0.61c3.4,0.07,6.55,1.03,9.27,2.74
		l26.5-185.48h24.6c27.86,0,47.69,7.93,60.61,24.26c12.67,16,16.56,41.78,11.58,76.6c-4.97,34.8-16.39,60.7-33.94,76.98
		c-17.88,16.6-40.22,24.67-68.3,24.67h-12c0.13,4.53-1.02,9.21-3.39,13.46L37.63,347.9h31.1c42.44,0,78.13-13.63,106.08-40.5
		c27.91-26.83,45.47-64.26,52.18-111.26C231.47,164.85,229.92,137.36,222.41,114.45z"/>
	<path class="st2" d="M427.71,332.87L374.52,50.48c-0.91-4.83-4.65-8.12-9.25-8.12h-26.31c-4.27,0-8.38,2.85-10.42,7.21
		L197.27,331.95c-1.66,3.57-1.67,7.63-0.02,10.83c1.65,3.19,4.73,5.11,8.23,5.11h28.18c4.36,0,8.54-2.96,10.52-7.45l31.69-71.63
		h91.38l13.46,70.97c0.91,4.83,4.66,8.11,9.25,8.11h26.3c3.34,0,6.65-1.75,8.92-4.72C427.44,340.21,428.38,336.38,427.71,332.87z
		 M298.66,219.98l41.75-91.1l17.44,91.1H298.66z"/>
	<path class="st2" d="M644.36,48.23c-1.52-3.63-4.8-5.88-8.58-5.88h-25.92c-3.71,0-7.35,2.15-9.57,5.67l-77.63,122.45L479.65,48.8
		c-1.39-3.95-4.81-6.44-8.8-6.44h-28.18c-3.63,0-7.21,2.07-9.45,5.47c-2.24,3.4-2.83,7.65-1.56,11.24l57.65,162.91l-16.26,113.74
		c-0.45,3.17,0.29,6.27,2.05,8.57s4.39,3.61,7.28,3.61h27.8c5.59,0,10.66-4.82,11.54-10.97l16.1-112.64l105.3-164.39
		C645.4,56.32,645.88,51.86,644.36,48.23z"/>
</g>
<path class="st3" d="M17.36,350.16c-4.83,0-8.78-3.39-9.82-8.43L0.5,307.7c-0.78-3.75,0.2-7.9,2.6-11.1c2.4-3.2,5.98-5.12,9.56-5.12
	l25.99,0.48c3.88,0.07,7.18,2.31,8.83,5.98c1.65,3.67,1.36,8.14-0.77,11.96l-18.77,33.54C25.63,347.58,21.57,350.16,17.36,350.16
	C17.36,350.16,17.36,350.16,17.36,350.16z"/>
<g class="st1">
	<path class="st2" d="M80.49,35.39H46.91c-4.6,0-7.74-4.11-7.02-9.18L42.3,9.34c0.72-5.07,5.04-9.18,9.64-9.18h33.58
		c4.6,0,7.74,4.11,7.02,9.18l-2.41,16.88C89.4,31.28,85.09,35.39,80.49,35.39z"/>
</g>
</svg>
